<?xml version="1.0" standalone="no"?><!DOCTYPE svg PUBLIC "-//W3C//DTD SVG 1.1//EN" "http://www.w3.org/Graphics/SVG/1.1/DTD/svg11.dtd"><svg t="1496202525324" class="icon" style="" viewBox="0 0 1024 1024" version="1.1" xmlns="http://www.w3.org/2000/svg" p-id="3614" xmlns:xlink="http://www.w3.org/1999/xlink" width="200" height="200"><defs><style type="text/css"></style></defs><path d="M513.141754 22.753166c-276.483738 0-500.620857 224.131999-500.620857 500.615737 0 276.488858 224.131999 500.620857 500.620857 500.620857C789.625492 1023.99488 1013.757491 799.862881 1013.757491 523.374023 1013.757491 246.890286 789.625492 22.753166 513.141754 22.753166zM484.270219 215.474123c0-15.92824 12.927935-28.866416 28.866416-28.866416 15.93336 0 28.866416 12.933055 28.866416 28.866416l0 38.491968c0 15.93336-12.927935 28.866416-28.866416 28.866416-15.93848 0-28.866416-12.927935-28.866416-28.866416L484.270219 215.474123zM294.257729 683.071145l-33.331033 19.256224c-13.818811 7.96156-31.467363 3.246064-39.428923-10.567627-7.96668-13.798331-3.251184-31.467363 10.562507-39.434043l33.325913-19.240864c13.798331-7.9718 31.467363-3.251184 39.434043 10.567627C312.786916 657.461033 308.05606 675.109584 294.257729 683.071145zM304.825356 403.100704c-7.9718 13.813691-25.635712 18.529187-39.434043 10.562507l-33.325913-19.245984c-13.818811-7.96668-18.534307-25.615232-10.562507-39.428923 7.96668-13.798331 25.610112-18.534307 39.428923-10.562507l33.331033 19.245984C308.05606 371.638462 312.786916 389.281894 304.825356 403.100704zM580.489898 860.140339l-134.706526 0c-10.623947 0-19.245984-8.606677-19.245984-19.245984 0-10.634187 8.627157-19.245984 19.245984-19.245984l134.706526 0c10.644427 0 19.245984 8.611797 19.245984 19.245984C599.735881 851.533662 591.134324 860.140339 580.489898 860.140339zM618.976745 696.572517l0 76.973695c0 15.93336-12.927935 28.866416-28.866416 28.866416L436.162939 802.412628c-15.92824 0-28.866416-12.927935-28.866416-28.866416L407.296524 696.572517c0-1.889271 0.732156-3.543022 1.095675-5.335013-49.264394-50.380548-97.315353-113.438153-97.315353-167.858361 0-111.600082 90.459708-202.05979 202.05979-202.05979 111.594962 0 202.05979 90.459708 202.05979 202.05979 0 54.420208-48.07144 117.436853-97.299994 167.837881C618.244589 693.009015 618.976745 694.683247 618.976745 696.572517zM804.780616 691.754621c-7.96668 13.813691-25.610112 18.529187-39.428923 10.567627l-33.331033-19.256224c-13.798331-7.96156-18.534307-25.610112-10.562507-39.418683 7.96668-13.818811 25.625472-18.539427 39.418683-10.567627l33.336153 19.240864C808.0318 660.292379 812.747296 677.95629 804.780616 691.754621zM794.212989 394.422348l-33.336153 19.245984c-13.793211 7.96668-31.457123 3.251184-39.418683-10.562507-7.97692-13.818811-3.240944-31.467363 10.562507-39.428923l33.331033-19.245984c13.818811-7.9718 31.467363-3.235824 39.428923 10.562507C812.747296 368.807116 808.0318 386.455668 794.212989 394.422348z" p-id="3615"></path><path d="M465.029355 744.679797l0.440318 0c-0.133119-0.117759-0.291839-0.276479-0.440318-0.389118L465.029355 744.679797z" p-id="3616"></path><path d="M561.249034 744.679797l0-0.389118c-0.153599 0.138239-0.317438 0.250879-0.445438 0.389118L561.249034 744.679797z" p-id="3617"></path></svg>